<svg id="圖層_1" data-name="圖層 1" xmlns="http://www.w3.org/2000/svg" viewBox="0 0 117 25"><defs><style>.cls-1{fill:#fff;}.cls-2{fill:#d53e07;}</style></defs><title>中文logo工作區域 9</title><path class="cls-1" d="M14.24,15.82H11.48v1h-1V7.9h3.81Zm-1-6.9H11.48v2.4H13.2Zm-1.71,5.89H13.2V12.32H11.48Zm9.65-3.63v1.06H19.34v6H18.21v-6h-1.8c0,1.86-.32,4.36-2,6.08a2.68,2.68,0,0,0-.81-.79c1.59-1.59,1.76-3.78,1.76-5.54V8.08l1,.27a14.89,14.89,0,0,0,3.31-1.27l1,.93s-.06,0-.27,0a20.63,20.63,0,0,1-3.91,1.28v1.84Z"/><path class="cls-1" d="M34,11.84a12.93,12.93,0,0,1-1.15,1.58,9.41,9.41,0,0,0-.52-1.12A15.43,15.43,0,0,0,35,7.15l1.27.43c0,.1-.15.13-.31.12A23.36,23.36,0,0,1,35,10l.34.11c0,.1-.11.17-.29.18v8H34Zm3.52,3.78H35.71v-.89H41V14c-1.74.06-3.4.12-4.58.14a.25.25,0,0,1-.2.16l-.29-1,3.29,0v-.65H36.49V9.4h2.75V8.81H36V8h3.24V7.19l1.38.07c0,.11-.1.17-.27.2V8h3.26v.84H40.35V9.4h2.84v3.25h-.74A9.4,9.4,0,0,1,43.83,14l-.81.49A4.67,4.67,0,0,0,42.6,14h-.27a.45.45,0,0,1-.21.07v.67h1.62v.89H42.11v1.51c0,1.06-.49,1.12-2.45,1.12a4.89,4.89,0,0,0-.33-1c.65,0,1.27,0,1.46,0s.23-.06.23-.2V15.62H37.87m-.35-5.55v.63h1.71v-.63Zm0,1.92h1.71v-.64H37.53Zm4.58-1.92H40.35v.63h1.76ZM40.35,12h1.76v-.64H40.35Zm0,.67v.64l1.53,0c-.2-.19-.42-.37-.61-.52l.17-.1Z"/><path class="cls-1" d="M57.83,14.67a4.9,4.9,0,0,1-1.72,3L55.18,17a4.22,4.22,0,0,0,1.64-2.7Zm1.88-1.51h-3V7.61h8.12v5.54H60.09M57.78,8.6V9.91h2.39V8.6Zm0,2.24v1.33h2.39V10.84Zm1.71,5.79c0,.32.1.38.61.38h1.65c.46,0,.55-.18.59-1.48a3.13,3.13,0,0,0,1,.42c-.13,1.67-.44,2.07-1.5,2.07H60c-1.28,0-1.59-.32-1.59-1.39V14.54l1.38.07c0,.11-.08.17-.27.2Zm4.22-6.72V8.6H61.27V9.91Zm0,2.26V10.84H61.27v1.33Zm1.52,5.4a10.79,10.79,0,0,0-2.11-2.87l1-.57a10.78,10.78,0,0,1,2.19,2.79Z"/><path class="cls-1" d="M88.84,10.17H86.6l.67.24a.33.33,0,0,1-.33.13,12.11,12.11,0,0,1-2.68,4.4A11.79,11.79,0,0,0,89,17.12a5.55,5.55,0,0,0-.81,1.13,11.88,11.88,0,0,1-4.9-2.44,13.94,13.94,0,0,1-4.86,2.44,5.49,5.49,0,0,0-.67-1A13.07,13.07,0,0,0,82.44,15a13.3,13.3,0,0,1-2.76-4.62l.63-.2H77.93V9.08h4.84v-2l1.43.08c0,.1-.08.17-.27.19V9.08h4.91Zm-8,0a10.64,10.64,0,0,0,2.51,4,10.63,10.63,0,0,0,2.43-4Z"/><path class="cls-1" d="M111.53,10.36h-.76A13.62,13.62,0,0,1,109.38,15a5.79,5.79,0,0,0,2.26,2.22,4.53,4.53,0,0,0-.8,1,6.5,6.5,0,0,1-2.15-2.14A7.39,7.39,0,0,1,106,18.24a5.49,5.49,0,0,0-.61-1A6.08,6.08,0,0,0,108.08,15a15.93,15.93,0,0,1-.94-2.82,6.94,6.94,0,0,1-.63,1.06,5.48,5.48,0,0,0-.76-.69h-.06a11.26,11.26,0,0,1-1.76,1.65v.38l2.49-.27v.9l-2.5.35v1.55c0,1-.39,1.12-2.19,1.12a3.32,3.32,0,0,0-.33-1c1.45,0,1.45,0,1.45-.18V15.71l-2,.24a.25.25,0,0,1-.2.19L100.34,15c.68-.06,1.56-.14,2.52-.25V13.64l.44,0a8,8,0,0,0,.81-.75h-1.21a12.21,12.21,0,0,1-1.9,1.42,9,9,0,0,0-.73-.82,10,10,0,0,0,1.15-.74V12h.92q.37-.34.71-.71h-2.68v-1h2v-1h-1.45v-1h1.45V7.09l1.32.07c0,.1-.08.17-.27.19v1h1.38V8.9a13.79,13.79,0,0,0,.73-1.52l1.24.42a.27.27,0,0,1-.3.13,15.51,15.51,0,0,1-1.31,2.39h1.19v1h-1.92q-.3.37-.61.71H105l.17,0,.63.4a13.75,13.75,0,0,0,1.67-5.29l1.37.29c0,.1-.12.15-.29.15-.11.6-.23,1.2-.38,1.78h3.38Zm-8.12,0h.46c.24-.33.48-.68.69-1H103.4Zm4.45,0v.06a16.36,16.36,0,0,0,.9,3.34,13.27,13.27,0,0,0,.87-3.4Z"/><rect class="cls-1" x="37.07" y="15.86" width="2.06" height="0.81" transform="matrix(0.87, 0.5, -0.5, 0.87, 13.24, -16.87)"/><path class="cls-2" d="M59,13.67l.82-.81s2.07.91,2.31,1.71l-.83.82A5.31,5.31,0,0,0,59,13.67"/></svg>