<svg xmlns="http://www.w3.org/2000/svg" viewBox="0 0 160 150"><defs><style>.cls-1,.cls-3{fill:#5f5c5d;}.cls-2{fill:#fff;stroke-width:0.47px;}.cls-2,.cls-3{stroke:#fff;stroke-miterlimit:10;}.cls-3{stroke-width:1.63px;}.cls-4{fill:#d43d07;}</style></defs><title>首頁icon工作區域 12 複本 3</title><g id="內容"><path class="cls-1" d="M81.64,73.11,80.56,73a5.91,5.91,0,0,0-6,5.92,6.05,6.05,0,0,0,12.11,0,5.42,5.42,0,0,0-.59-2.5l33.75-33.48,6.2.39,12-11.95-9.83-.61L127.63,21l-12,11.95.39,6.11Z"/><path class="cls-1" d="M80.61,67.1a7.68,7.68,0,0,1,1.74.17L89.7,60a20.18,20.18,0,0,0-9.09-2.1,21,21,0,1,0,21.19,21,19.62,19.62,0,0,0-2.63-10l-7.07,7a10,10,0,0,1,.42,2.94,11.9,11.9,0,1,1-11.9-11.8Z"/><path class="cls-1" d="M120.57,47.72l-4.51,4.47a43.42,43.42,0,0,1,9.12,26.72,44.54,44.54,0,1,1-18.47-35.79l5-5-.23-3.7a54.33,54.33,0,0,0-30.9-9.56c-30.09,0-54.48,24.19-54.48,54s24.39,54,54.48,54,54.48-24.19,54.48-54A53.21,53.21,0,0,0,125.28,48Z"/><path class="cls-1" d="M102.12,47.67A37.76,37.76,0,1,0,118.75,78.9a37.14,37.14,0,0,0-7.28-22.16l-7.21,7.15a27.07,27.07,0,0,1,4.48,15A28.13,28.13,0,1,1,80.61,51,26.94,26.94,0,0,1,94.8,54.93Z"/><line class="cls-2" x1="126.78" y1="21.1" x2="127.41" y2="31.88"/><line class="cls-2" x1="127.16" y1="31.71" x2="145.87" y2="32.6"/><line class="cls-2" x1="125.48" y1="22.53" x2="126.1" y2="33.31"/><line class="cls-2" x1="125.86" y1="33.13" x2="144.56" y2="34.02"/><circle class="cls-3" cx="80.84" cy="78.76" r="3.22"/><circle class="cls-4" cx="80.85" cy="78.73" r="2.4"/></g></svg>