<svg xmlns="http://www.w3.org/2000/svg" viewBox="0 0 160 150"><defs><style>.cls-1{fill:none;}.cls-2{fill:#5f5c5d;}.cls-3{fill:#fff;}</style></defs><title>首頁icon工作區域 12 複本</title><g id="內容"><path class="cls-1" d="M99.93,35.31c-.75-.3-1.51-.54-2.27-.8.84.3,1.68.56,2.51.9Z"/><path class="cls-1" d="M89.3,36.72l-5.71,4.13-2,5.92L84.43,48l1.95.86,6.21,2.74,8.29-2.36,3.28,1.09.23.06,2.94.59,3.88,2.41,2.77-1.1,2.3-.91,4-1.57.06,0-.1,0-.32-.08c-.08-.16-.21-.34-.31-.5-3.51-5.89-19.4-13.82-19.4-13.82L96.7,36.62Z"/><path class="cls-1" d="M41.92,90l3.2,6.38,8.61,1.72A1.9,1.9,0,0,1,55.25,100v18.68L58.59,127l2.37.78v-6.88a1.9,1.9,0,0,1,.76-1.52l6.86-5.14v-4.76a1.91,1.91,0,0,1,.56-1.35L76.35,101l1.33-6.68H72.39a1.9,1.9,0,0,1-1.63-.92l-5.16-8.6H53.34a1.9,1.9,0,0,1-1.7-1.05L49,78.45l-7.1,7.1Z"/><path class="cls-1" d="M41.92,77.39V74.12l-3.25-3.25a1.9,1.9,0,0,1-.56-1.35V63.81a1.9,1.9,0,0,1,1.64-1.88l12.95-1.85,8.78-5.27,5.47-9.11a1.9,1.9,0,0,1,1-.82l4.81-1.61.9-2.69L64.46,39a1.9,1.9,0,0,1-.74-.29l-4.57-3a53.47,53.47,0,0,0-5.93,3,154.85,154.85,0,0,1-9.36,14.54c-.83-1.15-1.91-2.7-3.11-4.47a53.55,53.55,0,0,0-9.63,14.68L34,72.11Z"/><path class="cls-1" d="M127.31,60.2l-10.52,3.51a1.89,1.89,0,0,1-.91.07l-11.43-1.9a1.9,1.9,0,0,1-1.27-.82l-3.24-4.87H90.31l-4.48,4.48L87.45,72,99.2,77l7-1.75a1.91,1.91,0,0,1,1.52.26l5.71,3.81a1.9,1.9,0,0,1,.85,1.58v7.17l7.43,14.83a1.9,1.9,0,0,1,.19.85v6.83l2.93,2.93A53.13,53.13,0,0,0,127.31,60.2Z"/><path class="cls-2" d="M58.41,25.61A14.58,14.58,0,0,0,45.2,11.12q-.67-.06-1.34-.06A14.57,14.57,0,0,0,29.31,25.61,17.33,17.33,0,0,0,31,32a76.89,76.89,0,0,0,4.49,8.65c1,1.67,2,3.31,3,4.86A57.18,57.18,0,0,1,56.31,32.79C58,29,58.41,26.82,58.41,25.61Zm-14,8.13A8.44,8.44,0,1,1,52.9,25.3,8.44,8.44,0,0,1,44.45,33.74Z"/><path class="cls-2" d="M80,27.62A57.25,57.25,0,0,0,27.49,62.27l-.44,1.06A57.13,57.13,0,1,0,80,27.62ZM49,78.45l2.63,5.25a1.9,1.9,0,0,0,1.7,1.05H65.59l5.16,8.6a1.9,1.9,0,0,0,1.63.92h5.29L76.35,101l-7.21,7.21a1.91,1.91,0,0,0-.56,1.35v4.76l-6.86,5.14a1.9,1.9,0,0,0-.76,1.52v6.88L58.59,127l-3.34-8.36V100a1.9,1.9,0,0,0-1.52-1.87L45.12,96.4,41.92,90V85.54ZM99.93,35.31l.24.1s15.89,7.94,19.4,13.82c.1.17.23.34.31.5l.32.08.1,0-.06,0-4,1.57-2.3.91-2.77,1.1L107.32,51l-2.94-.59-.23-.06-3.28-1.09-8.29,2.36-6.21-2.74L84.43,48l-2.85-1.26,2-5.92,5.71-4.13,7.41-.11,3.47-1.21c-.83-.34-1.67-.61-2.51-.9C98.42,34.77,99.19,35,99.93,35.31ZM40.75,48.8c1.2,1.77,2.29,3.31,3.11,4.47a154.85,154.85,0,0,0,9.36-14.54,53.47,53.47,0,0,1,5.93-3l4.57,3a1.9,1.9,0,0,0,.74.29l9.23,1.54-.9,2.69L68,44.86a1.9,1.9,0,0,0-1,.82L61.48,54.8l-8.78,5.27L39.75,61.92a1.9,1.9,0,0,0-1.64,1.88v5.71a1.9,1.9,0,0,0,.56,1.35l3.25,3.25v3.27L34,72.11l-2.87-8.62A53.55,53.55,0,0,1,40.75,48.8Zm81.15,61.83V103.8a1.9,1.9,0,0,0-.19-.85l-7.43-14.83V80.95a1.9,1.9,0,0,0-.85-1.58l-5.71-3.81a1.91,1.91,0,0,0-1.52-.26L99.2,77,87.45,72,85.83,60.67l4.48-4.48h9.62l3.24,4.87a1.9,1.9,0,0,0,1.27.82l11.43,1.9a1.89,1.89,0,0,0,.91-.07l10.52-3.51a53.13,53.13,0,0,1-2.47,53.36Z"/><path class="cls-3" d="M44.45,16.85A8.44,8.44,0,1,0,52.9,25.3,8.44,8.44,0,0,0,44.45,16.85Zm0,13.93a5.49,5.49,0,1,1,5.49-5.49A5.49,5.49,0,0,1,44.45,30.78Z"/><circle class="cls-2" cx="44.45" cy="25.3" r="5.49"/></g></svg>