<svg xmlns="http://www.w3.org/2000/svg" viewBox="0 0 160 150"><defs><style>.cls-1,.cls-4{fill:#5f5c5d;}.cls-1{fill-rule:evenodd;}.cls-2{fill:#fff;}.cls-3{fill:none;}</style></defs><title>首頁icon工作區域 12 複本 2</title><g id="內容"><path class="cls-1" d="M81.91,17.21c32.13.66,58.86,36.8,34.92,66-7.85,7.64-8.91,18.66-2,43.84l-53.28.6-3.59-16c-9.52,3.17-20,2.22-23.55-1.18-1.72-1.89-1-7.79,1.2-12.35.7-1.71-2.84-2.3-3.59-4.78-.35-2.31,2-2.39,3-3.59L31.41,87.2c-1.72-1.76,2.14-5.08,3.21-7.62a21.28,21.28,0,0,1-8.55-4.67c-.84-3.15,4.41-7.54,9-13.28,4.85-5.7.8-10.06,4.51-22.31C45.5,24.17,59.46,16.78,81.91,17.21Z"/><path class="cls-2" d="M103.54,74.69A27.84,27.84,0,0,1,69.88,79l-.09-.09a15.64,15.64,0,0,1-11.86,3.19,1.09,1.09,0,0,1-.28-2.06,13.48,13.48,0,0,0,5.74-6.48l-.19-.19a27.72,27.72,0,1,1,40.34,1.3Z"/><path class="cls-3" d="M83.95,40.25a2.93,2.93,0,0,1,2.93,3l-.49,16.9a2.46,2.46,0,0,1-4.91,0L81,43.27A2.93,2.93,0,0,1,83.95,40.25Zm0,30.56a3,3,0,1,1,3-3A3,3,0,0,1,83.92,70.81Z"/><circle class="cls-4" cx="83.92" cy="67.77" r="3.04"/><path class="cls-4" d="M83.95,62.55a2.45,2.45,0,0,0,2.44-2.38l.49-16.9a2.93,2.93,0,1,0-5.87,0l.47,16.9A2.45,2.45,0,0,0,83.95,62.55Z"/></g></svg>