<svg xmlns="http://www.w3.org/2000/svg" viewBox="0 0 160 150"><defs><style>.cls-1{fill:#5f5c5d;}.cls-2{fill:#fff;}</style></defs><title>首頁icon工作區域 12 複本 4</title><g id="內容"><polygon class="cls-1" points="33.29 83.45 33.29 114.19 79 143.5 124.71 114.19 124.71 83.45 79 112.75 33.29 83.45"/><path class="cls-1" d="M146.76,107.24a6.31,6.31,0,0,0,3.42-5.66,6.61,6.61,0,0,0-4.23-6.15V64.39l9.23-6L79,8.44,2.83,58.34,79,108.24l61.87-40.53V95.44a6.61,6.61,0,0,0-4.23,6.15,6.31,6.31,0,0,0,3.42,5.66l-5.11,25.51h2.65l1.32-7.93.58.1-1.31,7.84h2.12l.67-7.91.58.05-.67,7.86h2.3l-.15-7.88h.59l.15,7.89h2.5l-.86-7.85.58-.06.86,7.92h2.53l-1.67-7.9.57-.12,1.7,8h1.86Zm-67-6.18-.16-.1L12.1,57.35l.38-.24L78.85,14.53l.16.1,69.25,42.73-.39.25Z"/><polygon class="cls-1" points="79.73 100.36 147.15 57.36 78.86 15.22 13.18 57.35 79.73 100.36"/><polygon class="cls-2" points="147.74 124.86 149.41 132.75 150.01 132.75 148.31 124.73 147.74 124.86"/></g></svg>