<svg xmlns="http://www.w3.org/2000/svg" viewBox="0 0 160 150"><defs><style>.cls-1{fill:#5f5c5d;}</style></defs><title>首頁icon工作區域 12</title><g id="內容"><circle class="cls-1" cx="84.14" cy="43.72" r="25.72"/><path class="cls-1" d="M91.35,74.45H76.73c-.64,0-1.28,0-1.91,0l8,8.42Z"/><path class="cls-1" d="M104.13,76.14,93.87,93.73l-9.48-6.6L84.26,132H141v-7.78A49.79,49.79,0,0,0,104.13,76.14ZM88,129.48a1.35,1.35,0,1,1,1.35-1.35A1.35,1.35,0,0,1,88,129.48Zm0-8.43a1.35,1.35,0,1,1,1.35-1.35A1.35,1.35,0,0,1,88,121.05Zm0-7.86a1.35,1.35,0,1,1,1.35-1.35A1.35,1.35,0,0,1,88,113.19Zm0-8.43a1.35,1.35,0,1,1,1.35-1.35A1.35,1.35,0,0,1,88,104.77Zm0-8.43A1.35,1.35,0,1,1,89.32,95,1.35,1.35,0,0,1,88,96.34Z"/><path class="cls-1" d="M72.41,93.73l-10-17.17A49.79,49.79,0,0,0,27,124.22V132h54L81,87.72Z"/><polygon class="cls-1" points="99.52 77.38 94.3 76.25 86.16 84.28 92.8 88.9 99.52 77.38"/><polygon class="cls-1" points="66.76 77.38 73.48 88.9 79.71 84.56 71.88 76.27 66.76 77.38"/></g></svg>