<svg id="圖層_1" data-name="圖層 1" xmlns="http://www.w3.org/2000/svg" viewBox="0 0 157.33 86.67"><defs><style>.cls-1{font-size:14.09px;font-family:GillSans-Bold, Gill Sans;font-weight:700;letter-spacing:0.1em;}.cls-1,.cls-5{fill:#6d6663;}.cls-2{letter-spacing:0.09em;}.cls-3{letter-spacing:0.1em;}.cls-4{fill:#d53e07;}</style></defs><title>0710-3工作區域 8</title><text class="cls-1" transform="translate(23.89 66.69) rotate(-0.02) scale(0.9 1)">SCS <tspan class="cls-2" x="37.54" y="0">C</tspan><tspan class="cls-3" x="49.22" y="0">OLLEGE</tspan></text><path class="cls-4" d="M106.46,38.41a2,2,0,0,0-1.71-1.23L76.08,35.24h0a14.87,14.87,0,0,1-.15,10.39h0l27.12,0a3.27,3.27,0,0,0,2.65-1.34,5.81,5.81,0,0,0,1.1-4.8A7,7,0,0,0,106.46,38.41Z"/><path class="cls-5" d="M109.62,45.68h0c3.54-6.07-1.08-11.58-1.13-11.65h0a2,2,0,0,0-1.38-.69L73.23,31a1.89,1.89,0,0,0-.38,0L48.59,34.36a2,2,0,0,1-1.79-.68,7.14,7.14,0,0,1-1.85-4.34,7.93,7.93,0,0,1,1.46-4.58,2,2,0,0,1,1.32-.86L72,19.69a6.54,6.54,0,0,1,2.17,0l31.61,5.14a1.28,1.28,0,0,0,1.46-1.05l.23-1.43a1.28,1.28,0,0,0-1.05-1.46L74.18,15.62a6.54,6.54,0,0,0-2.17,0L45.55,20.21a2,2,0,0,0-1.07.55h0a12.75,12.75,0,0,0-3.55,8.67c.1,3.17,1.66,6.09,4.64,8.69h0a2,2,0,0,0,1.58.47l24.58-3.35h0a11,11,0,0,1-.24,10.37v0l-33.68,0a1.28,1.28,0,0,0-1.28,1.28v1.43a1.34,1.34,0,0,0,1.28,1.35h77.43a1.28,1.28,0,0,0,1.28-1.28V47a1.28,1.28,0,0,0-1.28-1.28ZM76.08,35.24l28.66,1.94a2,2,0,0,1,1.71,1.23,7,7,0,0,1,.35,1.12,5.81,5.81,0,0,1-1.1,4.8A3.27,3.27,0,0,1,103,45.67l-27.12,0h0a14.87,14.87,0,0,0,.15-10.39Z"/><path class="cls-4" d="M104.72,30.75,73.09,26.92l-21.94,3a.84.84,0,0,1-.93-.85v-.85a.85.85,0,0,1,.72-.86l22.28-3,.15,0,31.57,3.75a.85.85,0,0,1,.73.89l0,.91A.84.84,0,0,1,104.72,30.75Z"/></svg>